<svg width="50" height="50" viewBox="0 0 50 50" fill="none" xmlns="http://www.w3.org/2000/svg">
<path d="M16.3437 28.3437H12.9844L13.7969 23.8984H16.6797C17.3047 23.8984 17.6719 24.2578 17.8359 24.4687C17.9922 24.6797 18.25 25.125 18.1094 25.7344L17.7734 27.1953C17.6172 27.8672 17.0312 28.3437 16.3437 28.3437Z" fill="url(#paint0_linear_965_1944)"/>
<path d="M37.9375 24.4766C37.6641 24.1094 37.25 23.8984 36.8047 23.8984H34L33.2109 28.3437H36.4766C37.1484 28.3437 37.7187 27.8672 37.875 27.1953L38.2031 25.7266C38.3359 25.125 38.0938 24.6797 37.9375 24.4766ZM37.9375 24.4766C37.6641 24.1094 37.25 23.8984 36.8047 23.8984H34L33.2109 28.3437H36.4766C37.1484 28.3437 37.7187 27.8672 37.875 27.1953L38.2031 25.7266C38.3359 25.125 38.0938 24.6797 37.9375 24.4766ZM45.0391 20.4922C45.4297 20.8125 45.7969 21.1484 46.125 21.4844C45.7969 21.1406 45.4375 20.8125 45.0391 20.4922ZM46.125 31.6406C45.7969 31.9766 45.4297 32.3125 45.0391 32.6328C45.4375 32.3125 45.7969 31.9844 46.125 31.6406ZM42.3438 18.6875C42.8438 18.9688 43.3281 19.2578 43.7734 19.5547C43.3203 19.25 42.8516 18.9609 42.3438 18.6875ZM43.7734 33.5703C43.3281 33.8672 42.8438 34.1563 42.3438 34.4375C42.8516 34.1641 43.3203 33.875 43.7734 33.5703ZM25 16.4062C13.1406 16.4062 3.125 21.0547 3.125 26.5625C3.125 32.0703 13.1406 36.7188 25 36.7188C36.8594 36.7188 46.875 32.0703 46.875 26.5625C46.875 21.0547 36.8594 16.4062 25 16.4062ZM20.1328 26.2266L19.7969 27.6953C19.4141 29.3359 18 30.4922 16.3438 30.4922H12.5859L12.2344 32.4062C12.2031 32.5703 12.0703 32.6875 11.9141 32.6875H10.5156C10.3828 32.6875 10.3047 32.6094 10.2734 32.5703C10.2031 32.4844 10.1797 32.3828 10.1953 32.2734L12.1563 22.0313C12.1875 21.875 12.3203 21.7578 12.4766 21.7578H16.5625C17.5234 21.7578 18.4063 22.0781 19.0391 22.6719C20.0313 23.5859 20.4375 24.9141 20.1328 26.2266ZM30.4375 24.1953L29.3828 29.4766C29.3516 29.6406 29.1953 29.7578 29.0156 29.7578H27.5078C27.3906 29.7578 27.2813 29.7109 27.2109 29.625C27.1719 29.5781 27.1172 29.4844 27.1406 29.3594L28.0313 24.6797C28.0938 24.3594 28.0078 24.0234 27.7969 23.7734C27.5781 23.5078 27.25 23.3516 26.8984 23.3516H24.3828L23.2578 29.4688C23.2266 29.6406 23.0781 29.7578 22.8906 29.7578H21.3828C21.2656 29.7578 21.1562 29.7109 21.0859 29.625C21.0547 29.5781 20.9922 29.4844 21.0156 29.3594L23.0391 18.3828C23.0703 18.2188 23.2266 18.0937 23.4062 18.0937H24.9141C25.0312 18.0937 25.1406 18.1484 25.2109 18.2344C25.25 18.2734 25.3047 18.3672 25.2813 18.4922L24.7812 21.2031H27.7187C28.2422 21.2031 28.7188 21.3125 29.0938 21.5156C30.1016 22.0547 30.6406 23.1328 30.4375 24.1953ZM40.1406 26.2266L39.8125 27.6953C39.4453 29.3359 38.0703 30.4922 36.4766 30.4922H32.8281L32.4844 32.4141C32.4609 32.5703 32.3359 32.6875 32.1875 32.6875H30.8281C30.7187 32.6875 30.6406 32.6172 30.6094 32.5781C30.5391 32.4922 30.5156 32.3828 30.5313 32.2734L32.4297 22.0313C32.4609 21.8672 32.5859 21.7578 32.7266 21.7578H36.6953C37.6172 21.7578 38.4609 22.0781 39.0781 22.6719C40.0391 23.5859 40.4375 24.9141 40.1406 26.2266ZM36.8047 23.8984H34L33.2109 28.3437H36.4766C37.1484 28.3437 37.7187 27.8672 37.875 27.1953L38.2031 25.7266C38.3359 25.125 38.0938 24.6797 37.9375 24.4766C37.6641 24.1094 37.25 23.8984 36.8047 23.8984ZM6.22656 19.5547C6.67187 19.2578 7.15625 18.9688 7.65625 18.6875C7.14844 18.9609 6.67969 19.25 6.22656 19.5547ZM7.65625 34.4375C7.15625 34.1563 6.67187 33.8672 6.22656 33.5703C6.67969 33.875 7.14844 34.1641 7.65625 34.4375ZM3.875 21.4844C4.20313 21.1484 4.57031 20.8125 4.96094 20.4922C4.5625 20.8125 4.20313 21.1406 3.875 21.4844ZM4.96094 32.6328C4.57031 32.3125 4.20313 31.9766 3.875 31.6406C4.20313 31.9844 4.5625 32.3125 4.96094 32.6328Z" fill="url(#paint1_linear_965_1944)"/>
<path d="M45.0391 20.4922C45.4297 20.8125 45.7969 21.1484 46.125 21.4844C45.7969 21.1406 45.4375 20.8125 45.0391 20.4922ZM46.125 31.6406C45.7969 31.9766 45.4297 32.3125 45.0391 32.6328C45.4375 32.3125 45.7969 31.9844 46.125 31.6406ZM43.7734 19.5547C43.3203 19.25 42.8516 18.9609 42.3438 18.6875C42.8438 18.9688 43.3281 19.2578 43.7734 19.5547ZM43.7734 33.5703C43.3281 33.8672 42.8438 34.1563 42.3438 34.4375C42.8516 34.1641 43.3203 33.875 43.7734 33.5703ZM7.65625 18.6875C7.14844 18.9609 6.67969 19.25 6.22656 19.5547C6.67187 19.2578 7.15625 18.9688 7.65625 18.6875ZM7.65625 34.4375C7.15625 34.1563 6.67187 33.8672 6.22656 33.5703C6.67969 33.875 7.14844 34.1641 7.65625 34.4375ZM4.96094 20.4922C4.5625 20.8125 4.20312 21.1406 3.875 21.4844C4.20312 21.1484 4.57031 20.8125 4.96094 20.4922ZM4.96094 32.6328C4.57031 32.3125 4.20312 31.9766 3.875 31.6406C4.20312 31.9844 4.5625 32.3125 4.96094 32.6328Z" fill="white"/>
<path d="M25 13.2812C10.9844 13.2812 0 19.1172 0 26.5625C0 34.0078 10.9844 39.8438 25 39.8438C39.0156 39.8438 50 34.0078 50 26.5625C50 19.1172 39.0156 13.2812 25 13.2812ZM48.1641 28.3437C47.8125 29.5078 47.1094 30.6172 46.125 31.6406C45.7969 31.9766 45.4297 32.3125 45.0391 32.6328C44.6484 32.9531 44.2266 33.2656 43.7734 33.5703C43.3281 33.8672 42.8438 34.1563 42.3438 34.4375C38.0469 36.7969 31.8672 38.2812 25 38.2812C18.1328 38.2812 11.9531 36.7969 7.65625 34.4375C7.15625 34.1563 6.67187 33.8672 6.22656 33.5703C5.77344 33.2656 5.35156 32.9531 4.96094 32.6328C4.57031 32.3125 4.20313 31.9766 3.875 31.6406C2.89063 30.6172 2.1875 29.5078 1.83594 28.3437C1.71094 27.9609 1.63281 27.5625 1.59375 27.1641C1.57031 26.9688 1.5625 26.7656 1.5625 26.5625C1.5625 26.3594 1.57031 26.1562 1.59375 25.9609C1.63281 25.5625 1.71094 25.1641 1.83594 24.7812C2.1875 23.6172 2.89063 22.5078 3.875 21.4844C4.20313 21.1484 4.57031 20.8125 4.96094 20.4922C5.35156 20.1719 5.77344 19.8594 6.22656 19.5547C6.67187 19.2578 7.15625 18.9688 7.65625 18.6875C11.9531 16.3281 18.1328 14.8438 25 14.8438C31.8672 14.8438 38.0469 16.3281 42.3438 18.6875C42.8438 18.9688 43.3281 19.2578 43.7734 19.5547C44.2266 19.8594 44.6484 20.1719 45.0391 20.4922C45.4297 20.8125 45.7969 21.1484 46.125 21.4844C47.1094 22.5078 47.8125 23.6172 48.1641 24.7812C48.2891 25.1641 48.3672 25.5625 48.4062 25.9609C48.4297 26.1562 48.4375 26.3594 48.4375 26.5625C48.4375 26.7656 48.4297 26.9688 48.4062 27.1641C48.3672 27.5625 48.2891 27.9609 48.1641 28.3437Z" fill="url(#paint2_linear_965_1944)"/>
<defs>
<linearGradient id="paint0_linear_965_1944" x1="15.5672" y1="23.7008" x2="15.5672" y2="27.8727" gradientUnits="userSpaceOnUse">
<stop stop-color="#999BCD"/>
<stop offset="0.699" stop-color="#999BCD"/>
</linearGradient>
<linearGradient id="paint1_linear_965_1944" x1="25" y1="15.5016" x2="25" y2="34.5648" gradientUnits="userSpaceOnUse">
<stop stop-color="#999BCD"/>
<stop offset="0.699" stop-color="#999BCD"/>
</linearGradient>
<linearGradient id="paint2_linear_965_1944" x1="25" y1="10.1562" x2="25" y2="47.3648" gradientUnits="userSpaceOnUse">
<stop stop-color="#999BCD"/>
<stop offset="1" stop-color="#999BCD"/>
</linearGradient>
</defs>
</svg>
