<svg width="200" height="200" viewBox="0 0 200 200" fill="none" xmlns="http://www.w3.org/2000/svg">
<g filter="url(#filter0_d_953_34)">
<mask id="path-1-outside-1_953_34" maskUnits="userSpaceOnUse" x="41.627" y="26" width="131" height="148" fill="black">
<rect fill="white" x="41.627" y="26" width="131" height="148"/>
<path d="M98.9679 173H43.002V27.5455H98.3997C113.362 27.5455 126.288 30.4574 137.178 36.2812C148.116 42.0578 156.544 50.3911 162.462 61.2812C168.428 72.1241 171.411 85.1212 171.411 100.273C171.411 115.424 168.452 128.445 162.533 139.335C156.615 150.178 148.234 158.511 137.391 164.335C126.548 170.112 113.741 173 98.9679 173ZM82.4906 139.477H97.5474C104.744 139.477 110.876 138.317 115.942 135.997C121.056 133.677 124.939 129.676 127.59 123.994C130.289 118.312 131.638 110.405 131.638 100.273C131.638 90.1402 130.265 82.233 127.519 76.5511C124.82 70.8693 120.843 66.8684 115.587 64.5483C110.379 62.2282 103.987 61.0682 96.411 61.0682H82.4906V139.477Z"/>
</mask>
<path d="M98.9679 173H43.002V27.5455H98.3997C113.362 27.5455 126.288 30.4574 137.178 36.2812C148.116 42.0578 156.544 50.3911 162.462 61.2812C168.428 72.1241 171.411 85.1212 171.411 100.273C171.411 115.424 168.452 128.445 162.533 139.335C156.615 150.178 148.234 158.511 137.391 164.335C126.548 170.112 113.741 173 98.9679 173ZM82.4906 139.477H97.5474C104.744 139.477 110.876 138.317 115.942 135.997C121.056 133.677 124.939 129.676 127.59 123.994C130.289 118.312 131.638 110.405 131.638 100.273C131.638 90.1402 130.265 82.233 127.519 76.5511C124.82 70.8693 120.843 66.8684 115.587 64.5483C110.379 62.2282 103.987 61.0682 96.411 61.0682H82.4906V139.477Z" fill="white"/>
<path d="M43.002 173H42.002V174H43.002V173ZM43.002 27.5455V26.5455H42.002V27.5455H43.002ZM137.178 36.2812L136.707 37.1631L136.711 37.1655L137.178 36.2812ZM162.462 61.2812L161.584 61.7588L161.586 61.7633L162.462 61.2812ZM162.533 139.335L163.411 139.814L163.412 139.813L162.533 139.335ZM137.391 164.335L137.861 165.218L137.864 165.216L137.391 164.335ZM82.4906 139.477H81.4906V140.477H82.4906V139.477ZM115.942 135.997L115.529 135.086L115.526 135.088L115.942 135.997ZM127.59 123.994L126.687 123.565L126.684 123.571L127.59 123.994ZM127.519 76.5511L126.616 76.9802L126.619 76.9863L127.519 76.5511ZM115.587 64.5483L115.18 65.4618L115.183 65.4631L115.587 64.5483ZM82.4906 61.0682V60.0682H81.4906V61.0682H82.4906ZM98.9679 172H43.002V174H98.9679V172ZM44.002 173V27.5455H42.002V173H44.002ZM43.002 28.5455H98.3997V26.5455H43.002V28.5455ZM98.3997 28.5455C113.232 28.5455 125.989 31.4316 136.707 37.1631L137.65 35.3994C126.587 29.4832 113.492 26.5455 98.3997 26.5455V28.5455ZM136.711 37.1655C147.474 42.8498 155.759 51.0414 161.584 61.7588L163.341 60.8037C157.328 49.7408 148.757 41.2658 137.645 35.397L136.711 37.1655ZM161.586 61.7633C167.454 72.4288 170.411 85.2523 170.411 100.273H172.411C172.411 84.9901 169.402 71.8193 163.338 60.7992L161.586 61.7633ZM170.411 100.273C170.411 115.294 167.478 128.143 161.655 138.858L163.412 139.813C169.426 128.747 172.411 115.554 172.411 100.273H170.411ZM161.655 138.856C155.83 149.529 147.589 157.723 136.918 163.454L137.864 165.216C148.879 159.3 157.4 150.827 163.411 139.814L161.655 138.856ZM136.921 163.453C126.249 169.138 113.61 172 98.9679 172V174C113.872 174 126.847 171.086 137.861 165.218L136.921 163.453ZM82.4906 140.477H97.5474V138.477H82.4906V140.477ZM97.5474 140.477C104.848 140.477 111.129 139.301 116.359 136.906L115.526 135.088C110.623 137.333 104.641 138.477 97.5474 138.477V140.477ZM116.355 136.908C121.712 134.478 125.756 130.288 128.496 124.417L126.684 123.571C124.121 129.064 120.4 132.877 115.529 135.087L116.355 136.908ZM128.493 124.423C131.283 118.55 132.638 110.473 132.638 100.273H130.638C130.638 110.337 129.295 118.075 126.687 123.565L128.493 124.423ZM132.638 100.273C132.638 90.0706 131.259 81.9913 128.419 76.116L126.619 76.9863C129.271 82.4746 130.638 90.2097 130.638 100.273H132.638ZM128.422 76.1221C125.631 70.2458 121.487 66.0598 115.991 63.6335L115.183 65.4631C120.198 67.6769 124.009 71.4928 126.616 76.9802L128.422 76.1221ZM115.994 63.6348C110.623 61.2422 104.083 60.0682 96.411 60.0682V62.0682C103.89 62.0682 110.135 63.2142 115.18 65.4618L115.994 63.6348ZM96.411 60.0682H82.4906V62.0682H96.411V60.0682ZM81.4906 61.0682V139.477H83.4906V61.0682H81.4906Z" fill="black" mask="url(#path-1-outside-1_953_34)"/>
</g>
<mask id="path-3-outside-2_953_34" maskUnits="userSpaceOnUse" x="21" y="52" width="51" height="92" fill="black">
<rect fill="white" x="21" y="52" width="51" height="92"/>
<path d="M68.75 70.0909V88.5568H22.0312V70.0909H68.75ZM31.0795 53.1023H56.5625V118.195C56.5625 119.179 56.7318 120.01 57.0703 120.688C57.4089 121.334 57.9321 121.826 58.6399 122.165C59.3478 122.473 60.2557 122.626 61.3636 122.626C62.133 122.626 63.0256 122.534 64.0412 122.349C65.0876 122.165 65.857 122.011 66.3494 121.888L70.0426 139.8C68.9039 140.138 67.2727 140.554 65.1492 141.046C63.0563 141.539 60.5634 141.862 57.6705 142.016C51.8229 142.323 46.9141 141.723 42.9439 140.215C38.9737 138.676 35.9884 136.26 33.9879 132.967C31.9875 129.674 31.018 125.55 31.0795 120.595V53.1023Z"/>
</mask>
<path d="M68.75 70.0909V88.5568H22.0312V70.0909H68.75ZM31.0795 53.1023H56.5625V118.195C56.5625 119.179 56.7318 120.01 57.0703 120.688C57.4089 121.334 57.9321 121.826 58.6399 122.165C59.3478 122.473 60.2557 122.626 61.3636 122.626C62.133 122.626 63.0256 122.534 64.0412 122.349C65.0876 122.165 65.857 122.011 66.3494 121.888L70.0426 139.8C68.9039 140.138 67.2727 140.554 65.1492 141.046C63.0563 141.539 60.5634 141.862 57.6705 142.016C51.8229 142.323 46.9141 141.723 42.9439 140.215C38.9737 138.676 35.9884 136.26 33.9879 132.967C31.9875 129.674 31.018 125.55 31.0795 120.595V53.1023Z" fill="#FFE500"/>
<path d="M68.75 70.0909H69.75V69.0909H68.75V70.0909ZM68.75 88.5568V89.5568H69.75V88.5568H68.75ZM22.0312 88.5568H21.0312V89.5568H22.0312V88.5568ZM22.0312 70.0909V69.0909H21.0312V70.0909H22.0312ZM31.0795 53.1023V52.1023H30.0795V53.1023H31.0795ZM56.5625 53.1023H57.5625V52.1023H56.5625V53.1023ZM57.0703 120.688L56.1759 121.135L56.1801 121.143L56.1845 121.152L57.0703 120.688ZM58.6399 122.165L58.2085 123.067L58.2247 123.075L58.2412 123.082L58.6399 122.165ZM64.0412 122.349L63.8674 121.365L63.8623 121.366L64.0412 122.349ZM66.3494 121.888L67.3288 121.686L67.1183 120.665L66.1069 120.918L66.3494 121.888ZM70.0426 139.8L70.3276 140.758L71.2074 140.497L71.022 139.598L70.0426 139.8ZM65.1492 141.046L64.9233 140.072L64.9201 140.073L65.1492 141.046ZM57.6705 142.016L57.723 143.014L57.7236 143.014L57.6705 142.016ZM42.9439 140.215L42.5825 141.148L42.5888 141.15L42.9439 140.215ZM33.9879 132.967L33.1333 133.487L33.1333 133.487L33.9879 132.967ZM31.0795 120.595L32.0795 120.608V120.595H31.0795ZM67.75 70.0909V88.5568H69.75V70.0909H67.75ZM68.75 87.5568H22.0312V89.5568H68.75V87.5568ZM23.0312 88.5568V70.0909H21.0312V88.5568H23.0312ZM22.0312 71.0909H68.75V69.0909H22.0312V71.0909ZM31.0795 54.1023H56.5625V52.1023H31.0795V54.1023ZM55.5625 53.1023V118.195H57.5625V53.1023H55.5625ZM55.5625 118.195C55.5625 119.29 55.7502 120.283 56.1759 121.135L57.9647 120.24C57.7133 119.737 57.5625 119.069 57.5625 118.195H55.5625ZM56.1845 121.152C56.6309 122.004 57.3214 122.643 58.2085 123.067L59.0714 121.263C58.5427 121.01 58.1868 120.664 57.9561 120.223L56.1845 121.152ZM58.2412 123.082C59.1171 123.463 60.1736 123.626 61.3636 123.626V121.626C60.3377 121.626 59.5784 121.482 59.0386 121.248L58.2412 123.082ZM61.3636 123.626C62.2094 123.626 63.164 123.525 64.2201 123.333L63.8623 121.366C62.8871 121.543 62.0567 121.626 61.3636 121.626V123.626ZM64.215 123.334C65.2652 123.149 66.0636 122.99 66.592 122.858L66.1069 120.918C65.6505 121.032 64.9099 121.181 63.8674 121.365L64.215 123.334ZM65.37 122.09L69.0632 140.002L71.022 139.598L67.3288 121.686L65.37 122.09ZM69.7576 138.841C68.6483 139.171 67.0404 139.581 64.9233 140.072L65.375 142.02C67.505 141.526 69.1595 141.106 70.3276 140.758L69.7576 138.841ZM64.9201 140.073C62.901 140.548 60.47 140.865 57.6173 141.017L57.7236 143.014C60.6569 142.858 63.2117 142.529 65.3782 142.02L64.9201 140.073ZM57.6179 141.017C51.8599 141.32 47.0998 140.724 43.299 139.28L42.5888 141.15C46.7283 142.722 51.7859 143.327 57.723 143.014L57.6179 141.017ZM43.3053 139.283C39.5178 137.815 36.7166 135.533 34.8426 132.448L33.1333 133.487C35.2602 136.988 38.4297 139.538 42.5825 141.148L43.3053 139.283ZM34.8426 132.448C32.9636 129.355 32.0196 125.428 32.0795 120.608L30.0796 120.583C30.0164 125.672 31.0113 129.993 33.1333 133.487L34.8426 132.448ZM32.0795 120.595V53.1023H30.0795V120.595H32.0795Z" fill="black" mask="url(#path-3-outside-2_953_34)"/>
<defs>
<filter id="filter0_d_953_34" x="39.002" y="27.5454" width="136.409" height="153.455" filterUnits="userSpaceOnUse" color-interpolation-filters="sRGB">
<feFlood flood-opacity="0" result="BackgroundImageFix"/>
<feColorMatrix in="SourceAlpha" type="matrix" values="0 0 0 0 0 0 0 0 0 0 0 0 0 0 0 0 0 0 127 0" result="hardAlpha"/>
<feOffset dy="4"/>
<feGaussianBlur stdDeviation="2"/>
<feComposite in2="hardAlpha" operator="out"/>
<feColorMatrix type="matrix" values="0 0 0 0 0 0 0 0 0 0 0 0 0 0 0 0 0 0 0.25 0"/>
<feBlend mode="normal" in2="BackgroundImageFix" result="effect1_dropShadow_953_34"/>
<feBlend mode="normal" in="SourceGraphic" in2="effect1_dropShadow_953_34" result="shape"/>
</filter>
</defs>
</svg>
